<svg xmlns="http://www.w3.org/2000/svg" xmlns:xlink="http://www.w3.org/1999/xlink" width="598" zoomAndPan="magnify" viewBox="0 0 448.5 256.499992" height="342" preserveAspectRatio="xMidYMid meet" version="1.0"><defs><g/></defs><g fill="#000000" fill-opacity="1"><g transform="translate(113.490318, 147.54898)"><g><path d="M 10.09375 0.625 C 7.863281 0.625 6.035156 -0.191406 4.609375 -1.828125 C 3.179688 -3.472656 2.46875 -5.832031 2.46875 -8.90625 C 2.46875 -12.226562 3.390625 -14.644531 5.234375 -16.15625 C 7.085938 -17.675781 9.929688 -18.539062 13.765625 -18.75 L 17.859375 -18.9375 L 17.859375 -25 C 17.859375 -28.320312 17.53125 -30.613281 16.875 -31.875 C 16.226562 -33.132812 15.109375 -33.765625 13.515625 -33.765625 C 11.910156 -33.765625 10.757812 -33.09375 10.0625 -31.75 C 9.375 -30.40625 9.03125 -27.988281 9.03125 -24.5 C 6 -24.5 4.484375 -25.675781 4.484375 -28.03125 C 4.484375 -29.96875 5.363281 -31.515625 7.125 -32.671875 C 8.894531 -33.828125 11.191406 -34.40625 14.015625 -34.40625 C 17.085938 -34.40625 19.410156 -33.570312 20.984375 -31.90625 C 22.566406 -30.25 23.359375 -27.441406 23.359375 -23.484375 L 23.359375 -5.484375 C 23.359375 -3.429688 23.566406 -2.109375 23.984375 -1.515625 C 24.410156 -0.921875 25.234375 -0.625 26.453125 -0.625 L 26.578125 -0.625 L 26.578125 0 L 17.984375 0 L 17.984375 -6.0625 L 17.859375 -6.0625 C 16.554688 -1.601562 13.96875 0.625 10.09375 0.625 Z M 11.9375 -0.828125 C 13.113281 -0.828125 14.140625 -1.285156 15.015625 -2.203125 C 15.898438 -3.128906 16.59375 -4.378906 17.09375 -5.953125 C 17.601562 -7.535156 17.859375 -9.296875 17.859375 -11.234375 L 17.859375 -18.3125 L 14.953125 -18.109375 C 12.222656 -17.941406 10.375 -17.125 9.40625 -15.65625 C 8.4375 -14.1875 7.953125 -11.9375 7.953125 -8.90625 C 7.953125 -6.125 8.285156 -4.082031 8.953125 -2.78125 C 9.628906 -1.476562 10.625 -0.828125 11.9375 -0.828125 Z M 11.9375 -0.828125 "/></g></g></g><g fill="#000000" fill-opacity="1"><g transform="translate(142.083664, 147.54898)"><g><path d="M 12.4375 0 L 3.53125 -30.234375 C 3.15625 -31.492188 2.765625 -32.300781 2.359375 -32.65625 C 1.960938 -33.019531 1.257812 -33.203125 0.25 -33.203125 L 0.25 -33.828125 L 13.125 -33.828125 L 13.125 -33.203125 L 11.359375 -33.203125 C 10.347656 -33.203125 9.664062 -33.097656 9.3125 -32.890625 C 8.957031 -32.679688 8.78125 -32.28125 8.78125 -31.6875 C 8.78125 -31.1875 8.882812 -30.535156 9.09375 -29.734375 C 9.300781 -28.929688 9.53125 -28.109375 9.78125 -27.265625 L 13.890625 -13.515625 C 14.097656 -12.796875 14.367188 -11.78125 14.703125 -10.46875 C 15.046875 -9.164062 15.394531 -7.851562 15.75 -6.53125 C 16.101562 -5.207031 16.363281 -4.101562 16.53125 -3.21875 C 17.039062 -5.070312 17.453125 -6.554688 17.765625 -7.671875 C 18.085938 -8.785156 18.363281 -9.765625 18.59375 -10.609375 C 18.820312 -11.453125 19.101562 -12.421875 19.4375 -13.515625 L 22.34375 -23.609375 C 23.019531 -26.046875 23.523438 -27.90625 23.859375 -29.1875 C 24.191406 -30.476562 24.359375 -31.394531 24.359375 -31.9375 C 24.359375 -32.40625 24.171875 -32.734375 23.796875 -32.921875 C 23.421875 -33.109375 22.644531 -33.203125 21.46875 -33.203125 L 20.015625 -33.203125 L 20.015625 -33.828125 L 29.15625 -33.828125 L 29.15625 -33.203125 L 28.03125 -33.203125 C 27.101562 -33.203125 26.445312 -33.066406 26.0625 -32.796875 C 25.6875 -32.523438 25.289062 -31.648438 24.875 -30.171875 L 16.28125 0 Z M 12.4375 0 "/></g></g></g><g fill="#000000" fill-opacity="1"><g transform="translate(171.308216, 147.54898)"><g><path d="M 10.09375 0.625 C 7.863281 0.625 6.035156 -0.191406 4.609375 -1.828125 C 3.179688 -3.472656 2.46875 -5.832031 2.46875 -8.90625 C 2.46875 -12.226562 3.390625 -14.644531 5.234375 -16.15625 C 7.085938 -17.675781 9.929688 -18.539062 13.765625 -18.75 L 17.859375 -18.9375 L 17.859375 -25 C 17.859375 -28.320312 17.53125 -30.613281 16.875 -31.875 C 16.226562 -33.132812 15.109375 -33.765625 13.515625 -33.765625 C 11.910156 -33.765625 10.757812 -33.09375 10.0625 -31.75 C 9.375 -30.40625 9.03125 -27.988281 9.03125 -24.5 C 6 -24.5 4.484375 -25.675781 4.484375 -28.03125 C 4.484375 -29.96875 5.363281 -31.515625 7.125 -32.671875 C 8.894531 -33.828125 11.191406 -34.40625 14.015625 -34.40625 C 17.085938 -34.40625 19.410156 -33.570312 20.984375 -31.90625 C 22.566406 -30.25 23.359375 -27.441406 23.359375 -23.484375 L 23.359375 -5.484375 C 23.359375 -3.429688 23.566406 -2.109375 23.984375 -1.515625 C 24.410156 -0.921875 25.234375 -0.625 26.453125 -0.625 L 26.578125 -0.625 L 26.578125 0 L 17.984375 0 L 17.984375 -6.0625 L 17.859375 -6.0625 C 16.554688 -1.601562 13.96875 0.625 10.09375 0.625 Z M 11.9375 -0.828125 C 13.113281 -0.828125 14.140625 -1.285156 15.015625 -2.203125 C 15.898438 -3.128906 16.59375 -4.378906 17.09375 -5.953125 C 17.601562 -7.535156 17.859375 -9.296875 17.859375 -11.234375 L 17.859375 -18.3125 L 14.953125 -18.109375 C 12.222656 -17.941406 10.375 -17.125 9.40625 -15.65625 C 8.4375 -14.1875 7.953125 -11.9375 7.953125 -8.90625 C 7.953125 -6.125 8.285156 -4.082031 8.953125 -2.78125 C 9.628906 -1.476562 10.625 -0.828125 11.9375 -0.828125 Z M 11.9375 -0.828125 "/></g></g></g><path stroke-linecap="butt" transform="matrix(0.750277, 0, 0, 0.749375, 99.136503, 74.96577)" fill="none" stroke-linejoin="miter" d="M 0.000287371 0.999598 L 337.604729 0.999598 " stroke="#000000" stroke-width="2" stroke-opacity="1" stroke-miterlimit="4"/><path stroke-linecap="butt" transform="matrix(0.750643, 0, 0, 0.749375, 99.118608, 171.980553)" fill="none" stroke-linejoin="miter" d="M -0.00189188 1.000722 L 184.69386 1.000722 " stroke="#000000" stroke-width="2" stroke-opacity="1" stroke-miterlimit="4"/><path stroke-linecap="butt" transform="matrix(0.000000000000000046, -0.74662, 0.749375, 0.000000000000000046, 99.131758, 171.961388)" fill="none" stroke-linejoin="miter" d="M 0.000602761 1.002241 L 127.476214 1.002241 " stroke="#000000" stroke-width="2" stroke-opacity="1" stroke-miterlimit="4"/><path stroke-linecap="butt" transform="matrix(0.000000000000000046, -0.75097, 0.749375, 0.000000000000000046, 350.569895, 153.414446)" fill="none" stroke-linejoin="miter" d="M 0.000510593 1.00139 L 102.784214 1.00139 " stroke="#000000" stroke-width="2" stroke-opacity="1" stroke-miterlimit="4"/><g fill="#737373" fill-opacity="1"><g transform="translate(205.515504, 147.571084)"><g><path d="M 0.6875 0 L 0.6875 -0.625 L 1.078125 -0.625 C 2.210938 -0.625 3.070312 -0.726562 3.65625 -0.9375 C 4.25 -1.15625 4.660156 -1.585938 4.890625 -2.234375 C 5.117188 -2.890625 5.234375 -3.890625 5.234375 -5.234375 L 5.234375 -42.921875 C 5.234375 -44.265625 5.085938 -45.253906 4.796875 -45.890625 C 4.503906 -46.523438 4.070312 -46.925781 3.5 -47.09375 C 2.9375 -47.257812 2.253906 -47.34375 1.453125 -47.34375 L 0.6875 -47.34375 L 0.6875 -47.96875 L 10.734375 -47.96875 L 10.734375 -5.234375 C 10.734375 -3.890625 10.835938 -2.890625 11.046875 -2.234375 C 11.253906 -1.585938 11.648438 -1.15625 12.234375 -0.9375 C 12.828125 -0.726562 13.710938 -0.625 14.890625 -0.625 L 15.28125 -0.625 L 15.28125 0 Z M 0.6875 0 "/></g></g></g><g fill="#737373" fill-opacity="1"><g transform="translate(221.484857, 147.571084)"><g><path d="M 14.640625 0.625 C 10.734375 0.625 7.757812 -0.875 5.71875 -3.875 C 3.675781 -6.882812 2.65625 -11.128906 2.65625 -16.609375 C 2.65625 -22.535156 3.648438 -26.984375 5.640625 -29.953125 C 7.640625 -32.921875 10.453125 -34.40625 14.078125 -34.40625 C 17.523438 -34.40625 20.175781 -33.035156 22.03125 -30.296875 C 23.882812 -27.566406 24.8125 -23.738281 24.8125 -18.8125 L 24.8125 -17.671875 L 8.078125 -17.671875 C 8.078125 -11.316406 8.726562 -6.800781 10.03125 -4.125 C 11.34375 -1.457031 13.257812 -0.125 15.78125 -0.125 C 17.632812 -0.125 19.109375 -0.734375 20.203125 -1.953125 C 21.296875 -3.171875 22.007812 -5.109375 22.34375 -7.765625 C 23.351562 -7.515625 23.859375 -6.863281 23.859375 -5.8125 C 23.859375 -4.882812 23.53125 -3.925781 22.875 -2.9375 C 22.226562 -1.945312 21.21875 -1.101562 19.84375 -0.40625 C 18.476562 0.28125 16.742188 0.625 14.640625 0.625 Z M 8.078125 -18.3125 L 19.4375 -18.3125 C 19.394531 -23.78125 18.984375 -27.722656 18.203125 -30.140625 C 17.429688 -32.554688 16.054688 -33.765625 14.078125 -33.765625 C 12.097656 -33.765625 10.625 -32.566406 9.65625 -30.171875 C 8.6875 -27.773438 8.160156 -23.820312 8.078125 -18.3125 Z M 8.078125 -18.3125 "/></g></g></g><g fill="#737373" fill-opacity="1"><g transform="translate(248.689564, 147.571084)"><g><path d="M 1.328125 0 L 1.328125 -0.625 L 1.703125 -0.625 C 2.835938 -0.625 3.6875 -0.726562 4.25 -0.9375 C 4.820312 -1.15625 5.203125 -1.597656 5.390625 -2.265625 C 5.585938 -2.941406 5.6875 -3.929688 5.6875 -5.234375 L 5.6875 -28.78125 C 5.6875 -30.039062 5.585938 -30.988281 5.390625 -31.625 C 5.203125 -32.257812 4.832031 -32.679688 4.28125 -32.890625 C 3.738281 -33.097656 2.921875 -33.203125 1.828125 -33.203125 L 1.515625 -33.203125 L 1.515625 -33.828125 L 11.046875 -33.828125 L 11.046875 -27.90625 L 11.171875 -27.90625 C 11.722656 -29.84375 12.617188 -31.410156 13.859375 -32.609375 C 15.097656 -33.804688 16.789062 -34.40625 18.9375 -34.40625 C 21.800781 -34.40625 23.894531 -33.476562 25.21875 -31.625 C 26.539062 -29.769531 27.203125 -26.800781 27.203125 -22.71875 L 27.203125 -5.234375 C 27.203125 -3.253906 27.421875 -1.988281 27.859375 -1.4375 C 28.304688 -0.894531 29.3125 -0.625 30.875 -0.625 L 31.125 -0.625 L 31.125 0 L 21.78125 0 L 21.78125 -23.359375 C 21.78125 -26.597656 21.429688 -28.992188 20.734375 -30.546875 C 20.035156 -32.109375 18.828125 -32.890625 17.109375 -32.890625 C 15.378906 -32.890625 13.945312 -31.992188 12.8125 -30.203125 C 11.675781 -28.410156 11.109375 -25.519531 11.109375 -21.53125 L 11.109375 -5.109375 C 11.109375 -3.171875 11.335938 -1.9375 11.796875 -1.40625 C 12.265625 -0.882812 13.296875 -0.625 14.890625 -0.625 L 15.21875 -0.625 L 15.21875 0 Z M 1.328125 0 "/></g></g></g><g fill="#737373" fill-opacity="1"><g transform="translate(281.196352, 147.571084)"><g><path d="M 10.09375 0.625 C 7.863281 0.625 6.035156 -0.191406 4.609375 -1.828125 C 3.179688 -3.472656 2.46875 -5.832031 2.46875 -8.90625 C 2.46875 -12.226562 3.390625 -14.644531 5.234375 -16.15625 C 7.085938 -17.675781 9.929688 -18.539062 13.765625 -18.75 L 17.859375 -18.9375 L 17.859375 -25 C 17.859375 -28.320312 17.53125 -30.613281 16.875 -31.875 C 16.226562 -33.132812 15.109375 -33.765625 13.515625 -33.765625 C 11.910156 -33.765625 10.757812 -33.09375 10.0625 -31.75 C 9.375 -30.40625 9.03125 -27.988281 9.03125 -24.5 C 6 -24.5 4.484375 -25.675781 4.484375 -28.03125 C 4.484375 -29.96875 5.363281 -31.515625 7.125 -32.671875 C 8.894531 -33.828125 11.191406 -34.40625 14.015625 -34.40625 C 17.085938 -34.40625 19.410156 -33.570312 20.984375 -31.90625 C 22.566406 -30.25 23.359375 -27.441406 23.359375 -23.484375 L 23.359375 -5.484375 C 23.359375 -3.429688 23.566406 -2.109375 23.984375 -1.515625 C 24.410156 -0.921875 25.234375 -0.625 26.453125 -0.625 L 26.578125 -0.625 L 26.578125 0 L 17.984375 0 L 17.984375 -6.0625 L 17.859375 -6.0625 C 16.554688 -1.601562 13.96875 0.625 10.09375 0.625 Z M 11.9375 -0.828125 C 13.113281 -0.828125 14.140625 -1.285156 15.015625 -2.203125 C 15.898438 -3.128906 16.59375 -4.378906 17.09375 -5.953125 C 17.601562 -7.535156 17.859375 -9.296875 17.859375 -11.234375 L 17.859375 -18.3125 L 14.953125 -18.109375 C 12.222656 -17.941406 10.375 -17.125 9.40625 -15.65625 C 8.4375 -14.1875 7.953125 -11.9375 7.953125 -8.90625 C 7.953125 -6.125 8.285156 -4.082031 8.953125 -2.78125 C 9.628906 -1.476562 10.625 -0.828125 11.9375 -0.828125 Z M 11.9375 -0.828125 "/></g></g></g><g fill="#737373" fill-opacity="1"><g transform="translate(309.789698, 147.571084)"><g><path d="M 14.640625 0.625 C 10.734375 0.625 7.757812 -0.875 5.71875 -3.875 C 3.675781 -6.882812 2.65625 -11.128906 2.65625 -16.609375 C 2.65625 -22.535156 3.648438 -26.984375 5.640625 -29.953125 C 7.640625 -32.921875 10.453125 -34.40625 14.078125 -34.40625 C 17.523438 -34.40625 20.175781 -33.035156 22.03125 -30.296875 C 23.882812 -27.566406 24.8125 -23.738281 24.8125 -18.8125 L 24.8125 -17.671875 L 8.078125 -17.671875 C 8.078125 -11.316406 8.726562 -6.800781 10.03125 -4.125 C 11.34375 -1.457031 13.257812 -0.125 15.78125 -0.125 C 17.632812 -0.125 19.109375 -0.734375 20.203125 -1.953125 C 21.296875 -3.171875 22.007812 -5.109375 22.34375 -7.765625 C 23.351562 -7.515625 23.859375 -6.863281 23.859375 -5.8125 C 23.859375 -4.882812 23.53125 -3.925781 22.875 -2.9375 C 22.226562 -1.945312 21.21875 -1.101562 19.84375 -0.40625 C 18.476562 0.28125 16.742188 0.625 14.640625 0.625 Z M 8.078125 -18.3125 L 19.4375 -18.3125 C 19.394531 -23.78125 18.984375 -27.722656 18.203125 -30.140625 C 17.429688 -32.554688 16.054688 -33.765625 14.078125 -33.765625 C 12.097656 -33.765625 10.625 -32.566406 9.65625 -30.171875 C 8.6875 -27.773438 8.160156 -23.820312 8.078125 -18.3125 Z M 8.078125 -18.3125 "/></g></g></g><g fill="#000000" fill-opacity="1"><g transform="translate(246.430161, 174.818257)"><g><path d="M 5.15625 0.25 C 4.382812 0.25 3.6875 0.0390625 3.0625 -0.375 C 2.445312 -0.789062 1.960938 -1.492188 1.609375 -2.484375 C 1.265625 -3.472656 1.09375 -4.828125 1.09375 -6.546875 C 1.09375 -8.265625 1.265625 -9.609375 1.609375 -10.578125 C 1.960938 -11.554688 2.445312 -12.242188 3.0625 -12.640625 C 3.6875 -13.046875 4.394531 -13.25 5.1875 -13.25 C 6.269531 -13.25 7.066406 -12.988281 7.578125 -12.46875 C 8.085938 -11.945312 8.34375 -11.378906 8.34375 -10.765625 C 8.34375 -9.960938 7.914062 -9.5625 7.0625 -9.5625 C 7.0625 -10.71875 6.929688 -11.578125 6.671875 -12.140625 C 6.410156 -12.710938 5.921875 -13 5.203125 -13 C 4.648438 -13 4.175781 -12.816406 3.78125 -12.453125 C 3.382812 -12.085938 3.082031 -11.4375 2.875 -10.5 C 2.664062 -9.570312 2.5625 -8.253906 2.5625 -6.546875 C 2.5625 -4.941406 2.664062 -3.660156 2.875 -2.703125 C 3.082031 -1.742188 3.398438 -1.054688 3.828125 -0.640625 C 4.265625 -0.234375 4.789062 -0.03125 5.40625 -0.03125 C 6.15625 -0.03125 6.726562 -0.285156 7.125 -0.796875 C 7.53125 -1.304688 7.789062 -2.015625 7.90625 -2.921875 C 8.238281 -2.804688 8.40625 -2.554688 8.40625 -2.171875 C 8.40625 -1.828125 8.289062 -1.46875 8.0625 -1.09375 C 7.84375 -0.71875 7.5 -0.398438 7.03125 -0.140625 C 6.5625 0.117188 5.9375 0.25 5.15625 0.25 Z M 5.15625 0.25 "/></g></g></g><g fill="#000000" fill-opacity="1"><g transform="translate(255.52934, 174.818257)"><g><path d="M 5.328125 0.25 C 3.984375 0.25 2.941406 -0.300781 2.203125 -1.40625 C 1.460938 -2.507812 1.09375 -4.21875 1.09375 -6.53125 C 1.09375 -8.78125 1.441406 -10.460938 2.140625 -11.578125 C 2.835938 -12.691406 3.914062 -13.25 5.375 -13.25 C 8.1875 -13.25 9.59375 -11.007812 9.59375 -6.53125 C 9.59375 -4.175781 9.226562 -2.457031 8.5 -1.375 C 7.78125 -0.289062 6.722656 0.25 5.328125 0.25 Z M 5.359375 0 C 6.390625 0 7.109375 -0.515625 7.515625 -1.546875 C 7.921875 -2.578125 8.125 -4.238281 8.125 -6.53125 C 8.125 -8.832031 7.921875 -10.484375 7.515625 -11.484375 C 7.109375 -12.492188 6.378906 -13 5.328125 -13 C 4.304688 -13 3.585938 -12.492188 3.171875 -11.484375 C 2.765625 -10.484375 2.5625 -8.832031 2.5625 -6.53125 C 2.5625 -4.21875 2.78125 -2.550781 3.21875 -1.53125 C 3.664062 -0.507812 4.378906 0 5.359375 0 Z M 5.359375 0 "/></g></g></g><g fill="#000000" fill-opacity="1"><g transform="translate(266.209929, 174.818257)"><g><path d="M 0.578125 0 L 0.578125 -0.25 L 0.75 -0.25 C 1.21875 -0.25 1.5625 -0.285156 1.78125 -0.359375 C 2.007812 -0.441406 2.160156 -0.609375 2.234375 -0.859375 C 2.304688 -1.109375 2.34375 -1.503906 2.34375 -2.046875 L 2.34375 -11.046875 C 2.34375 -11.566406 2.304688 -11.953125 2.234375 -12.203125 C 2.160156 -12.453125 2.007812 -12.613281 1.78125 -12.6875 C 1.5625 -12.769531 1.226562 -12.8125 0.78125 -12.8125 L 0.65625 -12.8125 L 0.65625 -13.046875 L 3.765625 -13.046875 L 3.765625 -10.640625 L 3.828125 -10.640625 C 4.035156 -11.421875 4.378906 -12.050781 4.859375 -12.53125 C 5.335938 -13.007812 5.984375 -13.25 6.796875 -13.25 C 7.878906 -13.25 8.671875 -12.890625 9.171875 -12.171875 C 9.679688 -11.453125 9.9375 -10.320312 9.9375 -8.78125 L 9.9375 -2.046875 C 9.9375 -1.523438 9.96875 -1.132812 10.03125 -0.875 C 10.09375 -0.613281 10.226562 -0.441406 10.4375 -0.359375 C 10.65625 -0.285156 10.984375 -0.25 11.421875 -0.25 L 11.515625 -0.25 L 11.515625 0 L 8.5 0 L 8.5 -8.9375 C 8.5 -10.1875 8.335938 -11.132812 8.015625 -11.78125 C 7.703125 -12.425781 7.164062 -12.75 6.40625 -12.75 C 5.675781 -12.75 5.054688 -12.398438 4.546875 -11.703125 C 4.046875 -11.003906 3.796875 -9.835938 3.796875 -8.203125 L 3.796875 -2.015625 C 3.796875 -1.484375 3.828125 -1.09375 3.890625 -0.84375 C 3.960938 -0.59375 4.101562 -0.429688 4.3125 -0.359375 C 4.519531 -0.285156 4.851562 -0.25 5.3125 -0.25 L 5.453125 -0.25 L 5.453125 0 Z M 0.578125 0 "/></g></g></g><g fill="#000000" fill-opacity="1"><g transform="translate(278.277287, 174.818257)"><g><path d="M 3.9375 0.25 C 3.195312 0.25 2.59375 0.113281 2.125 -0.15625 C 1.664062 -0.425781 1.332031 -0.757812 1.125 -1.15625 C 0.925781 -1.550781 0.828125 -1.953125 0.828125 -2.359375 C 0.828125 -2.796875 0.921875 -3.113281 1.109375 -3.3125 C 1.304688 -3.519531 1.535156 -3.625 1.796875 -3.625 C 1.796875 -2.375 1.96875 -1.457031 2.3125 -0.875 C 2.65625 -0.289062 3.222656 0 4.015625 0 C 4.734375 0 5.296875 -0.226562 5.703125 -0.6875 C 6.117188 -1.15625 6.328125 -1.867188 6.328125 -2.828125 C 6.328125 -3.347656 6.253906 -3.769531 6.109375 -4.09375 C 5.960938 -4.425781 5.726562 -4.734375 5.40625 -5.015625 C 5.082031 -5.304688 4.632812 -5.640625 4.0625 -6.015625 C 3.5 -6.390625 3 -6.742188 2.5625 -7.078125 C 2.125 -7.421875 1.785156 -7.816406 1.546875 -8.265625 C 1.304688 -8.710938 1.1875 -9.273438 1.1875 -9.953125 C 1.1875 -10.992188 1.46875 -11.796875 2.03125 -12.359375 C 2.59375 -12.929688 3.367188 -13.21875 4.359375 -13.21875 C 5.253906 -13.21875 5.941406 -13 6.421875 -12.5625 C 6.910156 -12.132812 7.15625 -11.597656 7.15625 -10.953125 C 7.15625 -10.140625 6.820312 -9.734375 6.15625 -9.734375 C 6.15625 -10.867188 6.015625 -11.691406 5.734375 -12.203125 C 5.453125 -12.710938 4.976562 -12.96875 4.3125 -12.96875 C 3.644531 -12.96875 3.140625 -12.742188 2.796875 -12.296875 C 2.453125 -11.859375 2.28125 -11.265625 2.28125 -10.515625 C 2.28125 -9.734375 2.472656 -9.113281 2.859375 -8.65625 C 3.253906 -8.207031 3.875 -7.734375 4.71875 -7.234375 C 5.207031 -6.941406 5.65625 -6.632812 6.0625 -6.3125 C 6.46875 -6 6.796875 -5.609375 7.046875 -5.140625 C 7.296875 -4.671875 7.421875 -4.0625 7.421875 -3.3125 C 7.421875 -2.207031 7.125 -1.335938 6.53125 -0.703125 C 5.9375 -0.0664062 5.070312 0.25 3.9375 0.25 Z M 3.9375 0.25 "/></g></g></g><g fill="#000000" fill-opacity="1"><g transform="translate(286.549263, 174.818257)"><g><path d="M 5.1875 0.25 C 4.195312 0.25 3.425781 -0.113281 2.875 -0.84375 C 2.320312 -1.582031 2.046875 -2.796875 2.046875 -4.484375 L 2.046875 -11.046875 C 2.046875 -11.566406 2.007812 -11.953125 1.9375 -12.203125 C 1.863281 -12.453125 1.710938 -12.613281 1.484375 -12.6875 C 1.253906 -12.769531 0.90625 -12.8125 0.4375 -12.8125 L 0.359375 -12.8125 L 0.359375 -13.046875 L 3.484375 -13.046875 L 3.484375 -4.109375 C 3.484375 -2.765625 3.648438 -1.785156 3.984375 -1.171875 C 4.328125 -0.554688 4.875 -0.25 5.625 -0.25 C 6.5 -0.25 7.148438 -0.671875 7.578125 -1.515625 C 8.015625 -2.367188 8.234375 -3.488281 8.234375 -4.875 L 8.234375 -10.765625 C 8.234375 -11.378906 8.203125 -11.832031 8.140625 -12.125 C 8.085938 -12.414062 7.953125 -12.601562 7.734375 -12.6875 C 7.515625 -12.769531 7.148438 -12.8125 6.640625 -12.8125 L 6.59375 -12.8125 L 6.59375 -13.046875 L 9.6875 -13.046875 L 9.6875 -2.125 C 9.6875 -1.550781 9.71875 -1.128906 9.78125 -0.859375 C 9.851562 -0.597656 10 -0.429688 10.21875 -0.359375 C 10.445312 -0.285156 10.804688 -0.25 11.296875 -0.25 L 11.375 -0.25 L 11.375 0 L 8.25 0 L 8.25 -2.5 L 8.203125 -2.5 C 7.992188 -1.625 7.632812 -0.945312 7.125 -0.46875 C 6.613281 0.0078125 5.96875 0.25 5.1875 0.25 Z M 5.1875 0.25 "/></g></g></g><g fill="#000000" fill-opacity="1"><g transform="translate(298.37333, 174.818257)"><g><path d="M 0.21875 0 L 0.21875 -0.25 L 0.34375 -0.25 C 0.84375 -0.25 1.210938 -0.285156 1.453125 -0.359375 C 1.703125 -0.429688 1.863281 -0.59375 1.9375 -0.84375 C 2.019531 -1.09375 2.0625 -1.484375 2.0625 -2.015625 L 2.0625 -16.453125 C 2.0625 -17.003906 2.015625 -17.410156 1.921875 -17.671875 C 1.835938 -17.929688 1.679688 -18.09375 1.453125 -18.15625 C 1.234375 -18.21875 0.925781 -18.25 0.53125 -18.25 L 0.21875 -18.25 L 0.21875 -18.5 L 3.53125 -18.5 L 3.53125 -2.015625 C 3.53125 -1.484375 3.566406 -1.09375 3.640625 -0.84375 C 3.710938 -0.59375 3.867188 -0.429688 4.109375 -0.359375 C 4.359375 -0.285156 4.742188 -0.25 5.265625 -0.25 L 5.375 -0.25 L 5.375 0 Z M 0.21875 0 "/></g></g></g><g fill="#000000" fill-opacity="1"><g transform="translate(303.969082, 174.818257)"><g><path d="M 4.375 0.25 C 3.5 0.25 2.851562 -0.015625 2.4375 -0.546875 C 2.03125 -1.085938 1.828125 -2.066406 1.828125 -3.484375 L 1.828125 -12.8125 L 0.359375 -12.8125 L 0.359375 -13.046875 C 0.835938 -13.066406 1.222656 -13.128906 1.515625 -13.234375 C 1.816406 -13.335938 2.054688 -13.46875 2.234375 -13.625 C 2.515625 -13.882812 2.707031 -14.21875 2.8125 -14.625 C 2.914062 -15.03125 2.992188 -15.492188 3.046875 -16.015625 L 3.28125 -16.015625 L 3.28125 -13.046875 L 5.75 -13.046875 L 5.75 -12.8125 L 3.28125 -12.8125 L 3.28125 -2.921875 C 3.28125 -1.816406 3.40625 -1.066406 3.65625 -0.671875 C 3.914062 -0.285156 4.296875 -0.09375 4.796875 -0.09375 C 4.972656 -0.09375 5.144531 -0.0976562 5.3125 -0.109375 C 5.488281 -0.128906 5.695312 -0.175781 5.9375 -0.25 L 5.9375 0 C 5.726562 0.0625 5.488281 0.117188 5.21875 0.171875 C 4.945312 0.222656 4.664062 0.25 4.375 0.25 Z M 4.375 0.25 "/></g></g></g><g fill="#000000" fill-opacity="1"><g transform="translate(310.343373, 174.818257)"><g><path d="M 2.96875 -15.828125 C 2.726562 -15.828125 2.53125 -15.910156 2.375 -16.078125 C 2.21875 -16.242188 2.140625 -16.546875 2.140625 -16.984375 C 2.140625 -17.429688 2.21875 -17.738281 2.375 -17.90625 C 2.53125 -18.070312 2.726562 -18.15625 2.96875 -18.15625 C 3.195312 -18.15625 3.394531 -18.070312 3.5625 -17.90625 C 3.738281 -17.738281 3.828125 -17.429688 3.828125 -16.984375 C 3.828125 -16.546875 3.738281 -16.242188 3.5625 -16.078125 C 3.394531 -15.910156 3.195312 -15.828125 2.96875 -15.828125 Z M 0.46875 0 L 0.46875 -0.25 L 0.828125 -0.25 C 1.265625 -0.25 1.59375 -0.285156 1.8125 -0.359375 C 2.03125 -0.441406 2.175781 -0.613281 2.25 -0.875 C 2.320312 -1.132812 2.359375 -1.53125 2.359375 -2.0625 L 2.359375 -10.953125 C 2.359375 -11.492188 2.320312 -11.890625 2.25 -12.140625 C 2.175781 -12.398438 2.035156 -12.578125 1.828125 -12.671875 C 1.628906 -12.765625 1.328125 -12.8125 0.921875 -12.8125 L 0.703125 -12.8125 L 0.703125 -13.046875 L 3.828125 -13.046875 L 3.828125 -2.0625 C 3.828125 -1.53125 3.863281 -1.132812 3.9375 -0.875 C 4.007812 -0.613281 4.15625 -0.441406 4.375 -0.359375 C 4.601562 -0.285156 4.929688 -0.25 5.359375 -0.25 L 5.640625 -0.25 L 5.640625 0 Z M 0.46875 0 "/></g></g></g><g fill="#000000" fill-opacity="1"><g transform="translate(316.206749, 174.818257)"><g><path d="M 0.578125 0 L 0.578125 -0.25 L 0.75 -0.25 C 1.21875 -0.25 1.5625 -0.285156 1.78125 -0.359375 C 2.007812 -0.441406 2.160156 -0.609375 2.234375 -0.859375 C 2.304688 -1.109375 2.34375 -1.503906 2.34375 -2.046875 L 2.34375 -11.046875 C 2.34375 -11.566406 2.304688 -11.953125 2.234375 -12.203125 C 2.160156 -12.453125 2.007812 -12.613281 1.78125 -12.6875 C 1.5625 -12.769531 1.226562 -12.8125 0.78125 -12.8125 L 0.65625 -12.8125 L 0.65625 -13.046875 L 3.765625 -13.046875 L 3.765625 -10.640625 L 3.828125 -10.640625 C 4.035156 -11.421875 4.378906 -12.050781 4.859375 -12.53125 C 5.335938 -13.007812 5.984375 -13.25 6.796875 -13.25 C 7.878906 -13.25 8.671875 -12.890625 9.171875 -12.171875 C 9.679688 -11.453125 9.9375 -10.320312 9.9375 -8.78125 L 9.9375 -2.046875 C 9.9375 -1.523438 9.96875 -1.132812 10.03125 -0.875 C 10.09375 -0.613281 10.226562 -0.441406 10.4375 -0.359375 C 10.65625 -0.285156 10.984375 -0.25 11.421875 -0.25 L 11.515625 -0.25 L 11.515625 0 L 8.5 0 L 8.5 -8.9375 C 8.5 -10.1875 8.335938 -11.132812 8.015625 -11.78125 C 7.703125 -12.425781 7.164062 -12.75 6.40625 -12.75 C 5.675781 -12.75 5.054688 -12.398438 4.546875 -11.703125 C 4.046875 -11.003906 3.796875 -9.835938 3.796875 -8.203125 L 3.796875 -2.015625 C 3.796875 -1.484375 3.828125 -1.09375 3.890625 -0.84375 C 3.960938 -0.59375 4.101562 -0.429688 4.3125 -0.359375 C 4.519531 -0.285156 4.851562 -0.25 5.3125 -0.25 L 5.453125 -0.25 L 5.453125 0 Z M 0.578125 0 "/></g></g></g><g fill="#000000" fill-opacity="1"><g transform="translate(328.274107, 174.818257)"><g><path d="M 4.578125 5.84375 C 3.273438 5.84375 2.28125 5.550781 1.59375 4.96875 C 0.90625 4.382812 0.5625 3.539062 0.5625 2.4375 C 0.5625 0.726562 1.492188 -0.367188 3.359375 -0.859375 C 2.804688 -1.003906 2.410156 -1.253906 2.171875 -1.609375 C 1.941406 -1.960938 1.828125 -2.351562 1.828125 -2.78125 C 1.828125 -3.164062 1.9375 -3.539062 2.15625 -3.90625 C 2.375 -4.269531 2.734375 -4.648438 3.234375 -5.046875 C 2.648438 -5.316406 2.179688 -5.773438 1.828125 -6.421875 C 1.484375 -7.078125 1.3125 -7.847656 1.3125 -8.734375 C 1.3125 -10.296875 1.609375 -11.4375 2.203125 -12.15625 C 2.804688 -12.882812 3.675781 -13.25 4.8125 -13.25 C 5.757812 -13.25 6.523438 -12.914062 7.109375 -12.25 C 7.253906 -12.570312 7.457031 -12.894531 7.71875 -13.21875 C 7.988281 -13.539062 8.335938 -13.703125 8.765625 -13.703125 C 9.085938 -13.703125 9.332031 -13.582031 9.5 -13.34375 C 9.675781 -13.113281 9.765625 -12.851562 9.765625 -12.5625 C 9.765625 -12.25 9.691406 -12.003906 9.546875 -11.828125 C 9.398438 -11.648438 9.203125 -11.5625 8.953125 -11.5625 C 8.953125 -12.457031 8.703125 -12.90625 8.203125 -12.90625 C 7.828125 -12.90625 7.519531 -12.628906 7.28125 -12.078125 C 7.550781 -11.710938 7.757812 -11.28125 7.90625 -10.78125 C 8.050781 -10.28125 8.125 -9.640625 8.125 -8.859375 C 8.125 -7.554688 7.847656 -6.539062 7.296875 -5.8125 C 6.742188 -5.082031 5.898438 -4.71875 4.765625 -4.71875 C 4.554688 -4.71875 4.332031 -4.734375 4.09375 -4.765625 C 3.863281 -4.796875 3.644531 -4.851562 3.4375 -4.9375 C 3.15625 -4.664062 2.960938 -4.410156 2.859375 -4.171875 C 2.753906 -3.941406 2.703125 -3.695312 2.703125 -3.4375 C 2.703125 -2.957031 2.851562 -2.585938 3.15625 -2.328125 C 3.457031 -2.078125 3.847656 -1.953125 4.328125 -1.953125 L 5.96875 -1.953125 C 7.113281 -1.953125 7.9375 -1.632812 8.4375 -1 C 8.945312 -0.363281 9.203125 0.460938 9.203125 1.484375 C 9.203125 2.816406 8.804688 3.875 8.015625 4.65625 C 7.234375 5.445312 6.085938 5.84375 4.578125 5.84375 Z M 4.75 -4.96875 C 5.445312 -4.96875 5.960938 -5.265625 6.296875 -5.859375 C 6.628906 -6.453125 6.796875 -7.460938 6.796875 -8.890625 C 6.796875 -9.953125 6.71875 -10.78125 6.5625 -11.375 C 6.40625 -11.96875 6.171875 -12.382812 5.859375 -12.625 C 5.554688 -12.875 5.171875 -13 4.703125 -13 C 4.046875 -13 3.539062 -12.695312 3.1875 -12.09375 C 2.832031 -11.5 2.65625 -10.421875 2.65625 -8.859375 C 2.65625 -7.460938 2.820312 -6.460938 3.15625 -5.859375 C 3.5 -5.265625 4.03125 -4.96875 4.75 -4.96875 Z M 4.71875 5.59375 C 5.90625 5.59375 6.757812 5.257812 7.28125 4.59375 C 7.8125 3.9375 8.078125 3.03125 8.078125 1.875 C 8.078125 1.0625 7.898438 0.425781 7.546875 -0.03125 C 7.203125 -0.5 6.550781 -0.734375 5.59375 -0.734375 L 4.09375 -0.734375 C 3.394531 -0.734375 2.820312 -0.445312 2.375 0.125 C 1.925781 0.707031 1.703125 1.46875 1.703125 2.40625 C 1.703125 3.46875 1.96875 4.265625 2.5 4.796875 C 3.039062 5.328125 3.78125 5.59375 4.71875 5.59375 Z M 4.71875 5.59375 "/></g></g></g></svg>